<?xml version="1.0" standalone="no"?>
<!DOCTYPE svg PUBLIC "-//W3C//DTD SVG 20010904//EN"
 "http://www.w3.org/TR/2001/REC-SVG-20010904/DTD/svg10.dtd">
<svg version="1.0" xmlns="http://www.w3.org/2000/svg"
 width="747.000000pt" height="747.000000pt" viewBox="0 0 747.000000 747.000000"
 preserveAspectRatio="xMidYMid meet">

<g transform="translate(0.000000,747.000000) scale(0.100000,-0.100000)"
fill="#000000" stroke="none">
<path d="M892 3978 l3 -2763 445 -3 c245 -2 518 0 608 3 l162 7 0 1069 0 1069
1585 0 1585 0 0 -1064 c0 -900 2 -1065 14 -1075 10 -9 168 -11 602 -11 323 1
593 4 600 7 12 4 14 456 14 2764 l0 2759 -612 -2 -613 -3 -3 -1072 -2 -1073
-1585 0 -1585 0 0 1075 0 1075 -610 0 -610 0 2 -2762z"/>
</g>
</svg>
